<svg width="26" height="27" viewBox="0 0 26 27" fill="none" xmlns="http://www.w3.org/2000/svg">
<g id="Group">
<path id="Vector" d="M13 25.5469C19.6274 25.5469 25 20.1743 25 13.5469C25 6.91946 19.6274 1.54688 13 1.54688C6.37258 1.54688 1 6.91946 1 13.5469C1 20.1743 6.37258 25.5469 13 25.5469Z" stroke="white" stroke-width="1.5" stroke-linecap="round" stroke-linejoin="round"/>
<path id="Vector_2" d="M7.4 12.7474C7.62091 12.7474 7.8 12.031 7.8 11.1474C7.8 10.2637 7.62091 9.54736 7.4 9.54736C7.17909 9.54736 7 10.2637 7 11.1474C7 12.031 7.17909 12.7474 7.4 12.7474Z" stroke="white" stroke-width="1.5" stroke-linecap="round" stroke-linejoin="round"/>
<path id="Vector_3" d="M18.6 12.7474C18.8209 12.7474 19 12.031 19 11.1474C19 10.2637 18.8209 9.54736 18.6 9.54736C18.379 9.54736 18.2 10.2637 18.2 11.1474C18.2 12.031 18.379 12.7474 18.6 12.7474Z" stroke="white" stroke-width="1.5" stroke-linecap="round" stroke-linejoin="round"/>
<path id="Vector_4" d="M7.40002 18.3467H18.6" stroke="white" stroke-width="1.5" stroke-linecap="round" stroke-linejoin="round"/>
</g>
</svg>
