<svg width="27" height="27" viewBox="0 0 27 27" fill="none" xmlns="http://www.w3.org/2000/svg">
<g id="Group">
<path id="Vector" d="M13.6001 25.5469C20.2275 25.5469 25.6001 20.1743 25.6001 13.5469C25.6001 6.91946 20.2275 1.54688 13.6001 1.54688C6.97268 1.54688 1.6001 6.91946 1.6001 13.5469C1.6001 20.1743 6.97268 25.5469 13.6001 25.5469Z" stroke="white" stroke-width="1.5" stroke-linecap="round" stroke-linejoin="round"/>
<path id="Vector_2" d="M7.15808 16.7471C8.33708 19.1151 10.7756 20.7471 13.6001 20.7471C16.4246 20.7471 18.8631 19.1151 20.0421 16.7471" stroke="white" stroke-width="1.5" stroke-linecap="round" stroke-linejoin="round"/>
<path id="Vector_3" d="M8.0001 12.7474C8.22101 12.7474 8.4001 12.031 8.4001 11.1474C8.4001 10.2637 8.22101 9.54736 8.0001 9.54736C7.77918 9.54736 7.6001 10.2637 7.6001 11.1474C7.6001 12.031 7.77918 12.7474 8.0001 12.7474Z" stroke="white" stroke-width="1.5" stroke-linecap="round" stroke-linejoin="round"/>
<path id="Vector_4" d="M19.2 12.7474C19.421 12.7474 19.6 12.031 19.6 11.1474C19.6 10.2637 19.421 9.54736 19.2 9.54736C18.9791 9.54736 18.8 10.2637 18.8 11.1474C18.8 12.031 18.9791 12.7474 19.2 12.7474Z" stroke="white" stroke-width="1.5" stroke-linecap="round" stroke-linejoin="round"/>
</g>
</svg>
