<svg width="27" height="27" viewBox="0 0 27 27" fill="none" xmlns="http://www.w3.org/2000/svg">
<g id="Group">
<path id="Vector" d="M13.4 25.5469C20.0274 25.5469 25.4 20.1743 25.4 13.5469C25.4 6.91946 20.0274 1.54688 13.4 1.54688C6.77261 1.54688 1.40002 6.91946 1.40002 13.5469C1.40002 20.1743 6.77261 25.5469 13.4 25.5469Z" stroke="white" stroke-width="1.5" stroke-linecap="round" stroke-linejoin="round"/>
<path id="Vector_2" d="M19.1981 19.5468C18.1371 17.4158 15.9426 15.9468 13.4001 15.9468C10.8576 15.9468 8.66355 17.4158 7.60205 19.5468" stroke="white" stroke-width="1.5" stroke-linecap="round" stroke-linejoin="round"/>
<path id="Vector_3" d="M7.80002 12.7474C8.02094 12.7474 8.20002 12.031 8.20002 11.1474C8.20002 10.2637 8.02094 9.54736 7.80002 9.54736C7.57911 9.54736 7.40002 10.2637 7.40002 11.1474C7.40002 12.031 7.57911 12.7474 7.80002 12.7474Z" stroke="white" stroke-width="1.5" stroke-linecap="round" stroke-linejoin="round"/>
<path id="Vector_4" d="M19 12.7474C19.2209 12.7474 19.4 12.031 19.4 11.1474C19.4 10.2637 19.2209 9.54736 19 9.54736C18.7791 9.54736 18.6 10.2637 18.6 11.1474C18.6 12.031 18.7791 12.7474 19 12.7474Z" stroke="white" stroke-width="1.5" stroke-linecap="round" stroke-linejoin="round"/>
</g>
</svg>
