<svg width="26" height="27" viewBox="0 0 26 27" fill="none" xmlns="http://www.w3.org/2000/svg">
<g id="Group">
<path id="Vector" d="M13.2 25.5469C19.8274 25.5469 25.2 20.1743 25.2 13.5469C25.2 6.91946 19.8274 1.54688 13.2 1.54688C6.57253 1.54688 1.19995 6.91946 1.19995 13.5469C1.19995 20.1743 6.57253 25.5469 13.2 25.5469Z" stroke="white" stroke-width="1.5" stroke-linecap="round" stroke-linejoin="round"/>
<path id="Vector_2" d="M6.75782 16.7471C7.93682 19.1151 10.3753 20.7471 13.1998 20.7471C16.0243 20.7471 18.4628 19.1151 19.6418 16.7471H6.75732H6.75782Z" stroke="white" stroke-width="1.5" stroke-linecap="round" stroke-linejoin="round"/>
<path id="Vector_3" d="M7.59995 12.7474C7.82087 12.7474 7.99995 12.031 7.99995 11.1474C7.99995 10.2637 7.82087 9.54736 7.59995 9.54736C7.37904 9.54736 7.19995 10.2637 7.19995 11.1474C7.19995 12.031 7.37904 12.7474 7.59995 12.7474Z" stroke="white" stroke-width="1.5" stroke-linecap="round" stroke-linejoin="round"/>
<path id="Vector_4" d="M18.7999 12.7474C19.0208 12.7474 19.1999 12.031 19.1999 11.1474C19.1999 10.2637 19.0208 9.54736 18.7999 9.54736C18.579 9.54736 18.3999 10.2637 18.3999 11.1474C18.3999 12.031 18.579 12.7474 18.7999 12.7474Z" stroke="white" stroke-width="1.5" stroke-linecap="round" stroke-linejoin="round"/>
</g>
</svg>
